solid OpenSCAD_Model
  facet normal -1.000000 0.000000 0.000000
    outer loop
      vertex -0.000064 -0.040000 -0.008000
      vertex -0.000064 -0.040064 -0.008064
      vertex -0.000064 -0.040064 0.008064
    endloop
  endfacet
  facet normal -1.000000 0.000000 0.000000
    outer loop
      vertex -0.000064 -0.040000 0.008000
      vertex -0.000064 -0.040000 -0.008000
      vertex -0.000064 -0.040064 0.008064
    endloop
  endfacet
  facet normal -1.000000 0.000000 0.000000
    outer loop
      vertex -0.000064 0.040064 -0.008064
      vertex -0.000064 -0.040064 -0.008064
      vertex -0.000064 0.040000 -0.008000
    endloop
  endfacet
  facet normal -1.000000 0.000000 -0.000000
    outer loop
      vertex -0.000064 0.040064 -0.008064
      vertex -0.000064 0.040000 -0.008000
      vertex -0.000064 0.040064 0.008064
    endloop
  endfacet
  facet normal -1.000000 -0.000000 0.000000
    outer loop
      vertex -0.000064 -0.040000 0.008000
      vertex -0.000064 0.040064 0.008064
      vertex -0.000064 0.040000 0.008000
    endloop
  endfacet
  facet normal -1.000000 0.000000 0.000000
    outer loop
      vertex -0.000064 0.040000 -0.008000
      vertex -0.000064 0.040000 0.008000
      vertex -0.000064 0.040064 0.008064
    endloop
  endfacet
  facet normal -1.000000 0.000000 0.000000
    outer loop
      vertex -0.000064 0.040064 0.008064
      vertex -0.000064 -0.040000 0.008000
      vertex -0.000064 -0.040064 0.008064
    endloop
  endfacet
  facet normal -1.000000 0.000000 0.000000
    outer loop
      vertex -0.000064 0.040000 -0.008000
      vertex -0.000064 -0.040064 -0.008064
      vertex -0.000064 -0.040000 -0.008000
    endloop
  endfacet
  facet normal -0.000000 -0.000000 -1.000000
    outer loop
      vertex -0.000064 0.040064 -0.008064
      vertex 0.064064 0.040064 -0.008064
      vertex -0.000064 -0.040064 -0.008064
    endloop
  endfacet
  facet normal -0.000000 -0.000000 -1.000000
    outer loop
      vertex -0.000064 -0.040064 -0.008064
      vertex 0.064064 0.040064 -0.008064
      vertex 0.064064 -0.040064 -0.008064
    endloop
  endfacet
  facet normal 0.000000 1.000000 -0.000000
    outer loop
      vertex -0.000064 0.040064 -0.008064
      vertex -0.000064 0.040064 0.008064
      vertex 0.064064 0.040064 -0.008064
    endloop
  endfacet
  facet normal 0.000000 1.000000 -0.000000
    outer loop
      vertex 0.064064 0.040064 -0.008064
      vertex -0.000064 0.040064 0.008064
      vertex 0.064064 0.040064 0.008064
    endloop
  endfacet
  facet normal -0.000000 0.000000 1.000000
    outer loop
      vertex 0.064064 0.040064 0.008064
      vertex -0.000064 0.040064 0.008064
      vertex -0.000064 -0.040064 0.008064
    endloop
  endfacet
  facet normal -0.000000 0.000000 1.000000
    outer loop
      vertex 0.064064 -0.040064 0.008064
      vertex 0.064064 0.040064 0.008064
      vertex -0.000064 -0.040064 0.008064
    endloop
  endfacet
  facet normal 0.000000 -1.000000 0.000000
    outer loop
      vertex -0.000064 -0.040064 0.008064
      vertex -0.000064 -0.040064 -0.008064
      vertex 0.064064 -0.040064 -0.008064
    endloop
  endfacet
  facet normal 0.000000 -1.000000 0.000000
    outer loop
      vertex 0.064064 -0.040064 0.008064
      vertex -0.000064 -0.040064 0.008064
      vertex 0.064064 -0.040064 -0.008064
    endloop
  endfacet
  facet normal 0.000000 0.000000 1.000000
    outer loop
      vertex -0.000064 -0.040000 -0.008000
      vertex 0.063872 -0.040000 -0.008000
      vertex 0.063872 0.040000 -0.008000
    endloop
  endfacet
  facet normal 0.000000 0.000000 1.000000
    outer loop
      vertex -0.000064 0.040000 -0.008000
      vertex -0.000064 -0.040000 -0.008000
      vertex 0.063872 0.040000 -0.008000
    endloop
  endfacet
  facet normal 0.000000 1.000000 -0.000000
    outer loop
      vertex 0.063872 -0.040000 0.008000
      vertex 0.063872 -0.040000 -0.008000
      vertex -0.000064 -0.040000 0.008000
    endloop
  endfacet
  facet normal 0.000000 1.000000 -0.000000
    outer loop
      vertex -0.000064 -0.040000 0.008000
      vertex 0.063872 -0.040000 -0.008000
      vertex -0.000064 -0.040000 -0.008000
    endloop
  endfacet
  facet normal 0.000000 -0.000000 -1.000000
    outer loop
      vertex 0.063872 -0.040000 0.008000
      vertex -0.000064 -0.040000 0.008000
      vertex 0.063872 0.040000 0.008000
    endloop
  endfacet
  facet normal 0.000000 -0.000000 -1.000000
    outer loop
      vertex 0.063872 0.040000 0.008000
      vertex -0.000064 -0.040000 0.008000
      vertex -0.000064 0.040000 0.008000
    endloop
  endfacet
  facet normal 0.000000 -1.000000 0.000000
    outer loop
      vertex 0.063872 0.040000 -0.008000
      vertex 0.063872 0.040000 0.008000
      vertex -0.000064 0.040000 0.008000
    endloop
  endfacet
  facet normal 0.000000 -1.000000 0.000000
    outer loop
      vertex -0.000064 0.040000 -0.008000
      vertex 0.063872 0.040000 -0.008000
      vertex -0.000064 0.040000 0.008000
    endloop
  endfacet
  facet normal 1.000000 0.000000 0.000000
    outer loop
      vertex 0.064064 -0.040064 -0.008064
      vertex 0.064064 0.040064 -0.008064
      vertex 0.064064 0.040064 0.008064
    endloop
  endfacet
  facet normal 1.000000 0.000000 -0.000000
    outer loop
      vertex 0.064064 -0.040064 0.008064
      vertex 0.064064 -0.040064 -0.008064
      vertex 0.064064 0.040064 0.008064
    endloop
  endfacet
  facet normal -1.000000 0.000000 0.000000
    outer loop
      vertex 0.063872 -0.040000 0.008000
      vertex 0.063872 0.040000 0.008000
      vertex 0.063872 -0.040000 -0.008000
    endloop
  endfacet
  facet normal -1.000000 -0.000000 0.000000
    outer loop
      vertex 0.063872 -0.040000 -0.008000
      vertex 0.063872 0.040000 0.008000
      vertex 0.063872 0.040000 -0.008000
    endloop
  endfacet
endsolid OpenSCAD_Model
