solid OpenSCAD_Model
  facet normal -1.000000 0.000000 0.000000
    outer loop
      vertex -0.064000 -40.000000 -8.000000
      vertex -0.064000 -40.064000 -8.064000
      vertex -0.064000 -40.064000 8.064000
    endloop
  endfacet
  facet normal -1.000000 0.000000 0.000000
    outer loop
      vertex -0.064000 -40.000000 8.000000
      vertex -0.064000 -40.000000 -8.000000
      vertex -0.064000 -40.064000 8.064000
    endloop
  endfacet
  facet normal -1.000000 0.000000 0.000000
    outer loop
      vertex -0.064000 40.064000 -8.064000
      vertex -0.064000 -40.064000 -8.064000
      vertex -0.064000 40.000000 -8.000000
    endloop
  endfacet
  facet normal -1.000000 0.000000 -0.000000
    outer loop
      vertex -0.064000 40.064000 -8.064000
      vertex -0.064000 40.000000 -8.000000
      vertex -0.064000 40.064000 8.064000
    endloop
  endfacet
  facet normal -1.000000 -0.000000 0.000000
    outer loop
      vertex -0.064000 -40.000000 8.000000
      vertex -0.064000 40.064000 8.064000
      vertex -0.064000 40.000000 8.000000
    endloop
  endfacet
  facet normal -1.000000 0.000000 0.000000
    outer loop
      vertex -0.064000 40.000000 -8.000000
      vertex -0.064000 40.000000 8.000000
      vertex -0.064000 40.064000 8.064000
    endloop
  endfacet
  facet normal -1.000000 0.000000 0.000000
    outer loop
      vertex -0.064000 40.064000 8.064000
      vertex -0.064000 -40.000000 8.000000
      vertex -0.064000 -40.064000 8.064000
    endloop
  endfacet
  facet normal -1.000000 0.000000 0.000000
    outer loop
      vertex -0.064000 40.000000 -8.000000
      vertex -0.064000 -40.064000 -8.064000
      vertex -0.064000 -40.000000 -8.000000
    endloop
  endfacet
  facet normal -0.000000 -0.000000 -1.000000
    outer loop
      vertex -0.064000 40.064000 -8.064000
      vertex 64.064000 40.064000 -8.064000
      vertex -0.064000 -40.064000 -8.064000
    endloop
  endfacet
  facet normal -0.000000 -0.000000 -1.000000
    outer loop
      vertex -0.064000 -40.064000 -8.064000
      vertex 64.064000 40.064000 -8.064000
      vertex 64.064000 -40.064000 -8.064000
    endloop
  endfacet
  facet normal 0.000000 1.000000 -0.000000
    outer loop
      vertex -0.064000 40.064000 -8.064000
      vertex -0.064000 40.064000 8.064000
      vertex 64.064000 40.064000 -8.064000
    endloop
  endfacet
  facet normal 0.000000 1.000000 -0.000000
    outer loop
      vertex 64.064000 40.064000 -8.064000
      vertex -0.064000 40.064000 8.064000
      vertex 64.064000 40.064000 8.064000
    endloop
  endfacet
  facet normal -0.000000 0.000000 1.000000
    outer loop
      vertex 64.064000 40.064000 8.064000
      vertex -0.064000 40.064000 8.064000
      vertex -0.064000 -40.064000 8.064000
    endloop
  endfacet
  facet normal -0.000000 0.000000 1.000000
    outer loop
      vertex 64.064000 -40.064000 8.064000
      vertex 64.064000 40.064000 8.064000
      vertex -0.064000 -40.064000 8.064000
    endloop
  endfacet
  facet normal 0.000000 -1.000000 0.000000
    outer loop
      vertex -0.064000 -40.064000 8.064000
      vertex -0.064000 -40.064000 -8.064000
      vertex 64.064000 -40.064000 -8.064000
    endloop
  endfacet
  facet normal 0.000000 -1.000000 0.000000
    outer loop
      vertex 64.064000 -40.064000 8.064000
      vertex -0.064000 -40.064000 8.064000
      vertex 64.064000 -40.064000 -8.064000
    endloop
  endfacet
  facet normal 0.000000 1.000000 -0.000000
    outer loop
      vertex 63.872000 -40.000000 8.000000
      vertex 63.872000 -40.000000 -8.000000
      vertex -0.064000 -40.000000 8.000000
    endloop
  endfacet
  facet normal 0.000000 1.000000 -0.000000
    outer loop
      vertex -0.064000 -40.000000 8.000000
      vertex 63.872000 -40.000000 -8.000000
      vertex -0.064000 -40.000000 -8.000000
    endloop
  endfacet
  facet normal 0.000000 0.000000 1.000000
    outer loop
      vertex -0.064000 -40.000000 -8.000000
      vertex 63.872000 -40.000000 -8.000000
      vertex 63.872000 40.000000 -8.000000
    endloop
  endfacet
  facet normal 0.000000 0.000000 1.000000
    outer loop
      vertex -0.064000 40.000000 -8.000000
      vertex -0.064000 -40.000000 -8.000000
      vertex 63.872000 40.000000 -8.000000
    endloop
  endfacet
  facet normal 0.000000 -0.000000 -1.000000
    outer loop
      vertex 63.872000 -40.000000 8.000000
      vertex -0.064000 -40.000000 8.000000
      vertex 63.872000 40.000000 8.000000
    endloop
  endfacet
  facet normal 0.000000 -0.000000 -1.000000
    outer loop
      vertex 63.872000 40.000000 8.000000
      vertex -0.064000 -40.000000 8.000000
      vertex -0.064000 40.000000 8.000000
    endloop
  endfacet
  facet normal 0.000000 -1.000000 0.000000
    outer loop
      vertex 63.872000 40.000000 -8.000000
      vertex 63.872000 40.000000 8.000000
      vertex -0.064000 40.000000 8.000000
    endloop
  endfacet
  facet normal 0.000000 -1.000000 0.000000
    outer loop
      vertex -0.064000 40.000000 -8.000000
      vertex 63.872000 40.000000 -8.000000
      vertex -0.064000 40.000000 8.000000
    endloop
  endfacet
  facet normal 1.000000 0.000000 0.000000
    outer loop
      vertex 64.064000 -40.064000 -8.064000
      vertex 64.064000 40.064000 -8.064000
      vertex 64.064000 40.064000 8.064000
    endloop
  endfacet
  facet normal 1.000000 0.000000 -0.000000
    outer loop
      vertex 64.064000 -40.064000 8.064000
      vertex 64.064000 -40.064000 -8.064000
      vertex 64.064000 40.064000 8.064000
    endloop
  endfacet
  facet normal -1.000000 0.000000 0.000000
    outer loop
      vertex 63.872000 -40.000000 8.000000
      vertex 63.872000 40.000000 8.000000
      vertex 63.872000 -40.000000 -8.000000
    endloop
  endfacet
  facet normal -1.000000 -0.000000 0.000000
    outer loop
      vertex 63.872000 -40.000000 -8.000000
      vertex 63.872000 40.000000 8.000000
      vertex 63.872000 40.000000 -8.000000
    endloop
  endfacet
endsolid OpenSCAD_Model
